<?xml version="1.0" standalone="no"?>
<!DOCTYPE svg PUBLIC "-//W3C//DTD SVG 1.1//EN" "http://www.w3.org/Graphics/SVG/1.1/DTD/svg11.dtd" >
<svg xmlns="http://www.w3.org/2000/svg" xmlns:xlink="http://www.w3.org/1999/xlink" version="1.1">
<metadata>
Created by FontForge 20230101 at Wed May 22 23:20:31 2024
 By LOUIS
Copyright (c) 2024 by Pian45
</metadata>
<defs>
<font id="HeroesPatriotic" horiz-adv-x="331" >
  <font-face 
    font-family="Heroes Patriotic"
    font-weight="400"
    font-stretch="normal"
    units-per-em="1000"
    panose-1="0 0 0 0 0 0 0 0 0 0"
    ascent="800"
    descent="-200"
    x-height="699.802"
    cap-height="700.006"
    bbox="-6 -84.585 542.333 793.178"
    underline-thickness="0"
    underline-position="0"
    unicode-range="U+000A-00AD"
  />
<missing-glyph horiz-adv-x="527" 
d="M50 700h427v-700h-427v700zM78 680l185 -309l186 309h-371zM251 350l-180 300v-601zM264 329l-185 -308h370zM276 350l181 -303v605z" />
    <glyph glyph-name=".notdef" horiz-adv-x="527" 
d="M50 700h427v-700h-427v700zM78 680l185 -309l186 309h-371zM251 350l-180 300v-601zM264 329l-185 -308h370zM276 350l181 -303v605z" />
    <glyph glyph-name=".null" horiz-adv-x="0" 
 />
    <glyph glyph-name="LF" unicode="&#xa;" horiz-adv-x="0" 
 />
    <glyph glyph-name="controlCR" unicode="&#xd;" horiz-adv-x="0" 
 />
    <glyph glyph-name="space" unicode=" " horiz-adv-x="190" 
 />
    <glyph glyph-name="exclam" unicode="!" horiz-adv-x="163" 
d="M133.834 153.125h-105.001v583.344h105.001v-583.344zM81.333 -0.000976562c-32.2168 0 -58.334 26.1172 -58.334 58.334s26.1172 58.334 58.334 58.334s58.334 -26.1172 58.334 -58.334s-26.1172 -58.334 -58.334 -58.334z" />
    <glyph glyph-name="quotedbl" unicode="&#x22;" horiz-adv-x="273" 
d="M205.647 655.636c21.9541 2.4375 42.6162 -10.8447 49.499 -31.834s-1.89258 -43.9297 -21.0273 -54.9668c-33.1807 -19.1797 -69.0615 0.834961 -85.6807 32.084c-23.6133 44.3916 -8.35938 111.446 108.74 121.083l0.706055 -34.2832
c-24.9375 -0.419922 -42.3672 -25.375 -52.2373 -32.083zM133.18 722.025l0.711914 -34.2773c-24.9375 -0.419922 -42.3672 -25.375 -52.2373 -32.083c21.9541 2.4375 42.6104 -10.8506 49.4932 -31.8398s-1.89258 -43.9297 -21.0273 -54.9668
c-33.1807 -19.1797 -69.0615 0.834961 -85.6807 32.084c-23.6133 44.3916 -8.35938 111.446 108.74 121.083z" />
    <glyph glyph-name="quotedbl" unicode="&#x201d;" horiz-adv-x="273" 
d="M205.647 655.636c21.9541 2.4375 42.6162 -10.8447 49.499 -31.834s-1.89258 -43.9297 -21.0273 -54.9668c-33.1807 -19.1797 -69.0615 0.834961 -85.6807 32.084c-23.6133 44.3916 -8.35938 111.446 108.74 121.083l0.706055 -34.2832
c-24.9375 -0.419922 -42.3672 -25.375 -52.2373 -32.083zM133.18 722.025l0.711914 -34.2773c-24.9375 -0.419922 -42.3672 -25.375 -52.2373 -32.083c21.9541 2.4375 42.6104 -10.8506 49.4932 -31.8398s-1.89258 -43.9297 -21.0273 -54.9668
c-33.1807 -19.1797 -69.0615 0.834961 -85.6807 32.084c-23.6133 44.3916 -8.35938 111.446 108.74 121.083z" />
    <glyph glyph-name="quotedbl" unicode="&#x201c;" horiz-adv-x="273" 
d="M205.647 655.636c21.9541 2.4375 42.6162 -10.8447 49.499 -31.834s-1.89258 -43.9297 -21.0273 -54.9668c-33.1807 -19.1797 -69.0615 0.834961 -85.6807 32.084c-23.6133 44.3916 -8.35938 111.446 108.74 121.083l0.706055 -34.2832
c-24.9375 -0.419922 -42.3672 -25.375 -52.2373 -32.083zM133.18 722.025l0.711914 -34.2773c-24.9375 -0.419922 -42.3672 -25.375 -52.2373 -32.083c21.9541 2.4375 42.6104 -10.8506 49.4932 -31.8398s-1.89258 -43.9297 -21.0273 -54.9668
c-33.1807 -19.1797 -69.0615 0.834961 -85.6807 32.084c-23.6133 44.3916 -8.35938 111.446 108.74 121.083z" />
    <glyph glyph-name="quotedbl" unicode="&#x201d;" horiz-adv-x="273" 
d="M205.647 655.636c21.9541 2.4375 42.6162 -10.8447 49.499 -31.834s-1.89258 -43.9297 -21.0273 -54.9668c-33.1807 -19.1797 -69.0615 0.834961 -85.6807 32.084c-23.6133 44.3916 -8.35938 111.446 108.74 121.083l0.706055 -34.2832
c-24.9375 -0.419922 -42.3672 -25.375 -52.2373 -32.083zM133.18 722.025l0.711914 -34.2773c-24.9375 -0.419922 -42.3672 -25.375 -52.2373 -32.083c21.9541 2.4375 42.6104 -10.8506 49.4932 -31.8398s-1.89258 -43.9297 -21.0273 -54.9668
c-33.1807 -19.1797 -69.0615 0.834961 -85.6807 32.084c-23.6133 44.3916 -8.35938 111.446 108.74 121.083z" />
    <glyph glyph-name="quotedbl" unicode="&#x201c;" horiz-adv-x="273" 
d="M205.647 655.636c21.9541 2.4375 42.6162 -10.8447 49.499 -31.834s-1.89258 -43.9297 -21.0273 -54.9668c-33.1807 -19.1797 -69.0615 0.834961 -85.6807 32.084c-23.6133 44.3916 -8.35938 111.446 108.74 121.083l0.706055 -34.2832
c-24.9375 -0.419922 -42.3672 -25.375 -52.2373 -32.083zM133.18 722.025l0.711914 -34.2773c-24.9375 -0.419922 -42.3672 -25.375 -52.2373 -32.083c21.9541 2.4375 42.6104 -10.8506 49.4932 -31.8398s-1.89258 -43.9297 -21.0273 -54.9668
c-33.1807 -19.1797 -69.0615 0.834961 -85.6807 32.084c-23.6133 44.3916 -8.35938 111.446 108.74 121.083z" />
    <glyph glyph-name="numbersign" unicode="#" horiz-adv-x="387" 
d="M368.003 414.175h-64.167v-128.334h64.167v-105.001h-64.167v-180.835h-105.001v180.835h-11.667v-180.835h-105.001v180.835h-64.167v105.001h64.167v128.334h-64.167v105.001h64.167v180.835h105.001v-180.835h11.667v180.835h105.001v-180.835h64.167v-105.001z
M198.835 285.841v128.334h-11.667v-128.334h11.667z" />
    <glyph glyph-name="dollar" unicode="$" horiz-adv-x="323" 
d="M301.002 466.675l-105.001 -0.00683594v93.334c0 19.3301 -15.6699 35 -35 35s-35 -15.6699 -35 -35v-76.1777l175.001 -233.335v-110.484c-0.160156 -56.9912 -34.7236 -108.243 -87.501 -129.751v-68.5889h-105.001v68.583
c-52.7861 21.501 -87.3525 72.7607 -87.501 129.758v93.334h105.001v-93.334c0 -19.3301 15.6699 -35 35 -35s35 15.6699 35 35v76.1543l-175.001 233.335v110.49c0.149414 56.9961 34.7158 108.255 87.501 129.757v68.6006h105.001v-68.583
c52.7773 -21.5078 87.3408 -72.7598 87.501 -129.751v-93.334z" />
    <glyph glyph-name="percent" unicode="%" horiz-adv-x="592" 
d="M437.393 674.521l-181.176 -676.159l-101.288 27.1396l181.176 676.159zM522.128 304.99c26.9395 -76.8467 26.9395 -160.571 0 -237.418c-17.0801 -42.7061 -45.1387 -69.125 -80.127 -69.125s-63.0469 26.4131 -80.127 69.125
c-26.9404 76.8467 -26.9404 160.571 0 237.418c17.0801 42.7061 45.1445 69.125 80.127 69.125s63.0469 -26.4131 80.127 -69.125zM444.363 98.7451c18.623 56.8711 18.623 118.2 0 175.071c-4.03125 10.0684 0.402344 16.2988 -2.36816 16.2988
s1.65723 -6.23047 -2.36816 -16.2988c-18.623 -56.8711 -18.623 -118.2 0 -175.071c4.03125 -10.0684 -0.402344 -16.2988 2.36816 -16.2988s-1.65723 6.23047 2.36816 16.2988zM230.459 394.627c-17.0859 -42.7061 -45.1445 -69.125 -80.127 -69.125
s-63.041 26.4131 -80.127 69.125c-26.9395 76.8467 -26.9395 160.571 0 237.418c17.0801 42.7061 45.1445 69.125 80.127 69.125s63.0469 -26.4131 80.127 -69.125c26.7217 -76.8838 26.7217 -160.534 0 -237.418zM152.694 425.801
c18.8457 56.8359 18.8457 118.234 0 175.07c-4.03125 10.0684 0.402344 16.2988 -2.36816 16.2988s1.65723 -6.23047 -2.36816 -16.2988c-18.623 -56.8711 -18.623 -118.199 0 -175.07c4.03125 -10.0684 -0.402344 -16.2988 2.36816 -16.2988
s-1.65723 6.23047 2.36816 16.2988z" />
    <glyph glyph-name="ampersand" unicode="&#x26;" horiz-adv-x="405" 
d="M366.474 114.123c-4.01074 -9.31348 -8.63184 -18.3496 -13.8359 -27.0527l33.3086 -62.4521l-92.2842 -49.2217l-20.7197 38.8447c-21.3105 -9.51172 -44.4062 -14.3643 -67.7432 -14.2334c-90.6387 0 -147.584 62.5742 -171.6 142.672
c-16.7754 57.292 -16.7754 118.192 0 175.484c7.81445 27.0986 20.3584 52.6016 37.0527 75.332c-32.0078 60.9883 -49.6367 90.3652 -49.6367 163.598c-0.386719 37.8457 6.58887 75.4062 20.5391 110.589c16.2695 38.7627 42.5723 69.3701 79.4863 83.166
c13.0488 4.93652 26.8818 7.47559 40.833 7.49512c71.3594 0 114.964 -56.3037 132.295 -128.334c11.4268 -47.9561 11.4268 -97.9258 0 -145.882c-13.4922 -56.0879 -42.9219 -102.615 -88.9766 -120.472v-0.157227l78.7041 -147.584
c0.319336 4.81445 0.478516 9.64844 0.478516 14.502c0 32.7891 -7.04688 64.75 -21.1406 88.7891l90.2363 52.9092c24.1104 -43.2979 36.4893 -92.1436 35.9102 -141.698c0.258789 -39.9102 -7.53223 -79.4629 -22.9072 -116.294zM138.39 627.077
c-8.56836 -22.3184 -12.7783 -46.0791 -12.3428 -69.9814c0 -54.0928 39.0254 -162.716 66.4424 -48.7432c7.04785 32.1133 7.04785 65.373 0 97.4863c-6.41699 26.6699 -17.1094 47.5068 -30.5791 47.5068c-1.46191 0.0673828 -2.9248 -0.108398 -4.3291 -0.519531
c-6.94141 -2.5957 -13.5391 -12.2852 -19.1914 -25.749zM205.229 104.991c6.11523 -0.0556641 12.1807 0.742188 18.084 2.33887l-91.6484 171.822c-3.78711 -15.9697 -5.67285 -32.3311 -5.61719 -48.7432c-0.109375 -19.5557 2.60742 -39.0244 8.06641 -57.8027
c11.375 -37.958 35.3389 -67.6152 71.1152 -67.6152z" />
    <glyph glyph-name="quotesingle" unicode="'" horiz-adv-x="149" 
d="M81.6475 655.636c21.9541 2.4375 42.6162 -10.8447 49.499 -31.834s-1.89258 -43.9297 -21.0273 -54.9668c-33.1807 -19.1797 -69.0615 0.834961 -85.6807 32.084c-23.6133 44.3916 -8.35938 111.446 108.74 121.083l0.706055 -34.2832
c-24.9375 -0.419922 -42.3672 -25.375 -52.2373 -32.083z" />
    <glyph glyph-name="quotesingle" unicode="&#x2019;" horiz-adv-x="149" 
d="M81.6475 655.636c21.9541 2.4375 42.6162 -10.8447 49.499 -31.834s-1.89258 -43.9297 -21.0273 -54.9668c-33.1807 -19.1797 -69.0615 0.834961 -85.6807 32.084c-23.6133 44.3916 -8.35938 111.446 108.74 121.083l0.706055 -34.2832
c-24.9375 -0.419922 -42.3672 -25.375 -52.2373 -32.083z" />
    <glyph glyph-name="quotesingle" unicode="&#x2018;" horiz-adv-x="149" 
d="M81.6475 655.636c21.9541 2.4375 42.6162 -10.8447 49.499 -31.834s-1.89258 -43.9297 -21.0273 -54.9668c-33.1807 -19.1797 -69.0615 0.834961 -85.6807 32.084c-23.6133 44.3916 -8.35938 111.446 108.74 121.083l0.706055 -34.2832
c-24.9375 -0.419922 -42.3672 -25.375 -52.2373 -32.083z" />
    <glyph glyph-name="quotesingle" unicode="&#x2019;" horiz-adv-x="149" 
d="M81.6475 655.636c21.9541 2.4375 42.6162 -10.8447 49.499 -31.834s-1.89258 -43.9297 -21.0273 -54.9668c-33.1807 -19.1797 -69.0615 0.834961 -85.6807 32.084c-23.6133 44.3916 -8.35938 111.446 108.74 121.083l0.706055 -34.2832
c-24.9375 -0.419922 -42.3672 -25.375 -52.2373 -32.083z" />
    <glyph glyph-name="quotesingle" unicode="&#x2018;" horiz-adv-x="149" 
d="M81.6475 655.636c21.9541 2.4375 42.6162 -10.8447 49.499 -31.834s-1.89258 -43.9297 -21.0273 -54.9668c-33.1807 -19.1797 -69.0615 0.834961 -85.6807 32.084c-23.6133 44.3916 -8.35938 111.446 108.74 121.083l0.706055 -34.2832
c-24.9375 -0.419922 -42.3672 -25.375 -52.2373 -32.083z" />
    <glyph glyph-name="parenleft" unicode="(" horiz-adv-x="267" 
d="M216.872 647.51c-38.0977 0 -66.0859 -71.4736 -81.375 -162.953c-13.9961 -89.1523 -13.9961 -179.942 0 -269.095c15.2891 -91.4795 43.2773 -162.956 81.375 -162.956v-105.001c-100.497 0 -161.211 109.971 -184.731 250.73
c-16.1875 100.534 -16.1875 203.011 0 303.545c23.5205 140.76 84.2344 250.73 184.731 250.73v-105.001z" />
    <glyph glyph-name="parenright" unicode=")" horiz-adv-x="267" 
d="M234.731 501.78c16.1875 -100.534 16.1875 -203.013 0 -303.547c-23.5205 -140.76 -84.2344 -250.73 -184.731 -250.73v105.001c38.0977 0 66.0859 71.4707 81.375 162.955c13.9961 89.1523 13.9961 179.942 0 269.095
c-15.2891 91.4795 -43.2832 162.956 -81.375 162.956v105.001c100.497 0 161.211 -109.971 184.731 -250.73z" />
    <glyph glyph-name="asterisk" unicode="*" horiz-adv-x="296" 
d="M280.815 653.716l-63.0762 -36.418l63.0762 -36.418l-35 -60.4277l-62.9072 36.3184v-72.7363h-70.001v72.7363l-62.9072 -36.3184l-35 60.4277l63.0703 36.418l-63.0703 36.418l35 60.4277l62.9072 -36.3184v72.7363h70.001v-72.7363l62.9072 36.3184z" />
    <glyph glyph-name="plus" unicode="+" horiz-adv-x="268" 
d="M186.168 402.508h64.167v-105.001h-64.167v-64.1729h-105.001v64.1729h-64.167v105.001h64.167v64.167h105.001v-64.167z" />
    <glyph glyph-name="comma" unicode="," horiz-adv-x="148" 
d="M123.446 77.0576c23.6133 -44.3857 8.35938 -111.44 -108.74 -121.089l-0.706055 34.2832c24.9375 0.419922 42.3672 25.375 52.2373 32.083c-21.9541 -2.4375 -42.6104 10.8506 -49.4932 31.8398s1.89258 43.9297 21.0273 54.9668
c33.1748 19.1797 69.0557 -0.834961 85.6748 -32.084z" />
    <glyph glyph-name="hyphen" unicode="-" horiz-adv-x="264" 
d="M248.335 297.507h-233.335v105.001h233.335v-105.001z" />
    <glyph glyph-name="period" unicode="." horiz-adv-x="147" 
d="M73.334 -0.000976562c-32.2168 0 -58.334 26.1172 -58.334 58.334s26.1172 58.334 58.334 58.334s58.334 -26.1172 58.334 -58.334s-26.1172 -58.334 -58.334 -58.334z" />
    <glyph glyph-name="slash" unicode="/" horiz-adv-x="433" 
d="M283.335 716.419l99.2549 -32.8184l-233.335 -700.005l-99.2549 32.8125z" />
    <glyph glyph-name="zero" unicode="0" horiz-adv-x="324" 
d="M28.3398 477.84c15.0098 124.724 58.3867 222.166 133.526 222.166s118.522 -97.417 133.526 -222.164c4.96094 -42.4316 7.41113 -85.1191 7.33789 -127.839c0.0732422 -42.7197 -2.37695 -85.4072 -7.33789 -127.839
c-15.0039 -124.724 -58.3867 -222.164 -133.526 -222.164s-118.522 97.417 -133.526 222.164c-9.78711 84.9443 -9.78711 170.731 0 255.676zM191.22 465.539c-8.75 72.6836 -19.6641 129.466 -29.3535 129.466s-20.6035 -56.7881 -29.3477 -129.466
c-8.68945 -76.7773 -8.68945 -154.289 0 -231.066c8.75 -72.6836 19.6582 -129.466 29.3477 -129.466s20.6035 56.7881 29.3477 129.466c4.44141 38.3486 6.61719 76.9258 6.51562 115.53c0.103516 38.6064 -2.07031 77.1855 -6.50977 115.536z" />
    <glyph glyph-name="one" unicode="1" horiz-adv-x="245" 
d="M50 595.003v105h169.168v-700.005h-105.001v595.005h-64.167z" />
    <glyph glyph-name="two" unicode="2" horiz-adv-x="326" 
d="M127.001 466.669l-105.001 0.000976562v93.334c0 77.3203 62.6807 140.001 140.001 140.001s140.001 -62.6807 140.001 -140.001v-110.49l-175.001 -233.335v-111.383h180.835v-104.575h-285.836v250.252l175.001 233.335v76.1953c0 19.3301 -15.6699 35 -35 35
s-35 -15.6699 -35 -35v-93.334z" />
    <glyph glyph-name="three" unicode="3" horiz-adv-x="325" 
d="M125.001 466.669l-105.002 -0.000976562v93.334c0 77.3203 62.6807 140.001 140.001 140.001s140.001 -62.6807 140.001 -140.001v-180.835c0.00878906 -9.9707 -1.81836 -19.8574 -5.38965 -29.166c3.57227 -9.30859 5.39941 -19.1953 5.39062 -29.166v-180.835
c0 -77.3203 -62.6807 -140.001 -140.001 -140.001s-140.001 62.6807 -140.001 140.001v93.334h105.001v-93.334c0 -19.3301 15.6699 -35 35 -35s35 15.6699 35 35v157.501h-93.334v105.001h93.334v157.501c0 19.3301 -15.6699 35 -35 35s-35 -15.6699 -35 -35v-93.334z" />
    <glyph glyph-name="four" unicode="4" horiz-adv-x="328" 
d="M197.001 700.01l105 -0.000976562v-700.011h-105.001v180.835h-175.001v519.177h105.001v-414.176h70.001v414.176z" />
    <glyph glyph-name="five" unicode="5" 
d="M23 233.357l105.001 -0.0283203v-93.334c0 -19.3301 15.6699 -35 35 -35s35 15.6699 35 35v215.835h-175.001v343.971h285.836v-104.575h-180.835v-134.366h175.001v-320.836c0 -77.3203 -62.6807 -140.001 -140.001 -140.001s-140.001 62.6807 -140.001 140.001v93.334z
" />
    <glyph glyph-name="six" unicode="6" horiz-adv-x="328" 
d="M304.002 513.336l-105 -0.000976562v46.667c0 19.3301 -15.6699 35 -35 35s-35 -15.6699 -35 -35v-99.167h64.167c61.1689 -0.102539 110.73 -49.6641 110.833 -110.833v-210.002c0 -77.3203 -62.6807 -140.001 -140.001 -140.001s-140.001 62.6807 -140.001 140.001
v420.003c0 77.3203 62.6807 140.001 140.001 140.001s140.001 -62.6807 140.001 -140.001v-46.667zM193.169 355.834l-64.166 -0.000976562v-215.835c0 -19.3301 15.6699 -35 35 -35s35 15.6699 35 35v210.002c-0.0859375 3.18555 -2.64844 5.74805 -5.83398 5.83398z" />
    <glyph glyph-name="seven" unicode="7" horiz-adv-x="299" 
d="M219.168 -0.000976562h-105.001v97.2246l58.334 315.002v182.981l-122.501 0.00585938v104.587h227.502v-295.35l-58.334 -315.002v-89.4492z" />
    <glyph glyph-name="eight" unicode="8" horiz-adv-x="327" 
d="M23 437.502v122.501c0 77.3203 62.6807 140.001 140.001 140.001s140.001 -62.6807 140.001 -140.001v-122.501c0.0175781 -31.835 -10.8691 -62.7148 -30.8467 -87.501c19.9775 -24.7861 30.8643 -55.666 30.8467 -87.501v-122.501
c0 -77.3203 -62.6807 -140.001 -140.001 -140.001s-140.001 62.6807 -140.001 140.001v122.501c-0.0175781 31.835 10.8691 62.7148 30.8467 87.501c-19.9775 24.7861 -30.8643 55.666 -30.8467 87.501zM128.001 262.501v-122.501c0 -19.3301 15.6699 -35 35 -35
s35 15.6699 35 35v122.501c-0.133789 19.2744 -15.7256 34.8662 -35 35v105.001c19.2744 0.133789 34.8662 15.7256 35 35v122.501c0 19.3301 -15.6699 35 -35 35s-35 -15.6699 -35 -35v-122.501c0.133789 -19.2744 15.7256 -34.8662 35 -35v-105.001
c-19.2744 -0.133789 -34.8662 -15.7256 -35 -35z" />
    <glyph glyph-name="nine" unicode="9" horiz-adv-x="328" 
d="M23 186.667l105 0.000976562v-46.667c0 -19.3301 15.6699 -35 35 -35s35 15.6699 35 35v99.167h-64.167c-61.1689 0.102539 -110.73 49.6641 -110.833 110.833v210.002c0 77.3203 62.6807 140.001 140.001 140.001s140.001 -62.6807 140.001 -140.001v-420.003
c0 -77.3203 -62.6807 -140.001 -140.001 -140.001s-140.001 62.6807 -140.001 140.001v46.667zM133.833 344.169l64.166 0.000976562v215.835c0 19.3301 -15.6699 35 -35 35s-35 -15.6699 -35 -35v-210.002c0.0859375 -3.18555 2.64844 -5.74805 5.83398 -5.83398z" />
    <glyph glyph-name="colon" unicode=":" horiz-adv-x="153" 
d="M76.334 379.174c-32.2168 0 -58.334 26.1172 -58.334 58.334s26.1172 58.334 58.334 58.334s58.334 -26.1172 58.334 -58.334s-26.1172 -58.334 -58.334 -58.334zM76.334 204.173c-32.2168 0 -58.334 26.1172 -58.334 58.334s26.1172 58.334 58.334 58.334
s58.334 -26.1172 58.334 -58.334s-26.1172 -58.334 -58.334 -58.334z" />
    <glyph glyph-name="semicolon" unicode=";" horiz-adv-x="155" 
d="M77.4424 379.174c-32.2168 0 -58.334 26.1172 -58.334 58.334s26.1172 58.334 58.334 58.334s58.334 -26.1172 58.334 -58.334s-26.1172 -58.334 -58.334 -58.334zM127.446 261.142c23.6133 -44.3916 8.35938 -111.446 -108.74 -121.089l-0.706055 34.2832
c24.9375 0.419922 42.3672 25.3809 52.2373 32.083c-21.9541 -2.4375 -42.6104 10.8506 -49.4932 31.8398s1.89258 43.9297 21.0273 54.9668c33.1748 19.1797 69.0557 -0.834961 85.6748 -32.084z" />
    <glyph glyph-name="less" unicode="&#x3c;" horiz-adv-x="334" 
d="M316.553 357.479l-146.575 -36.6377l146.575 -36.6455l-25.4277 -101.717l-273.125 68.2793v140.158l273.125 68.2793z" />
    <glyph glyph-name="equal" unicode="=" horiz-adv-x="272" 
d="M252.335 235.358h-233.335v105.001h233.335v-105.001zM252.335 359.65h-233.335v105.001h233.335v-105.001z" />
    <glyph glyph-name="greater" unicode="&#x3e;" horiz-adv-x="334" 
d="M42.4277 459.196l273.125 -68.2812v-140.158l-273.125 -68.2793l-25.4277 101.717l146.575 36.6455l-146.575 36.6396z" />
    <glyph glyph-name="question" unicode="?" horiz-adv-x="343" 
d="M288.912 752.254c26.3037 -26.1973 41.0898 -61.793 41.0898 -98.917v-102.288l-87.501 -233.335v-142.708h-105.001v160.616l87.501 233.335v84.3799c0 19.3301 -15.6699 35 -35 35s-35 -15.6699 -35 -35v-93.334h-105.001v93.334
c0.0664062 56.5732 34.1748 107.547 86.4453 129.188s112.429 9.69727 152.467 -30.2715zM190.001 -0.00195312c-32.2168 0 -58.334 26.1172 -58.334 58.334s26.1172 58.334 58.334 58.334s58.334 -26.1172 58.334 -58.334s-26.1172 -58.334 -58.334 -58.334z" />
    <glyph glyph-name="at" unicode="@" horiz-adv-x="531" 
d="M134.834 726.989l373.337 0.00488281v-460.837c-0.0546875 -45.0811 -36.5859 -81.6123 -81.667 -81.667h-48.2715c-19.377 -35.8516 -56.8105 -58.2334 -97.5635 -58.334h-29.167c-61.168 0.106445 -110.729 49.667 -110.834 110.835v262.502
c0.102539 61.1689 49.6641 110.73 110.833 110.833h29.167c61.168 -0.106445 110.729 -49.667 110.834 -110.835v-210.002h11.667v332.503h-268.335c-3.18555 -0.0859375 -5.74805 -2.64844 -5.83398 -5.83398v-495.837
c0.0859375 -3.18555 2.64844 -5.74805 5.83398 -5.83398h204.168v-105.001h-204.168c-61.1689 0.102539 -110.73 49.6641 -110.833 110.833v495.837c0.102539 61.1689 49.6641 110.73 110.833 110.833zM286.503 236.915l0.000976562 262.573
c-0.0888672 3.18457 -2.64941 5.74512 -5.83398 5.83398h-29.167c-3.18555 -0.0859375 -5.74805 -2.64844 -5.83398 -5.83398v-262.502c0.0888672 -3.18457 2.64941 -5.74512 5.83398 -5.83398h29.167c3.15625 0.0917969 5.70312 2.6084 5.83301 5.7627z" />
    <glyph glyph-name="A" unicode="A" horiz-adv-x="306" 
d="M118.762 -0.00488281h-104.762l30.1758 700.005h216.92l30.1699 -700.005h-104.779l-12.833 297.502h-42.0586zM136.14 402.498h32.999l-8.29492 192.501h-16.4092z" />
    <glyph glyph-name="A" unicode="&#xc5;" horiz-adv-x="306" 
d="M118.762 -0.00488281h-104.762l30.1758 700.005h216.92l30.1699 -700.005h-104.779l-12.833 297.502h-42.0586zM136.14 402.498h32.999l-8.29492 192.501h-16.4092z" />
    <glyph glyph-name="A" unicode="&#xc4;" horiz-adv-x="306" 
d="M118.762 -0.00488281h-104.762l30.1758 700.005h216.92l30.1699 -700.005h-104.779l-12.833 297.502h-42.0586zM136.14 402.498h32.999l-8.29492 192.501h-16.4092z" />
    <glyph glyph-name="A" unicode="&#xc3;" horiz-adv-x="306" 
d="M118.762 -0.00488281h-104.762l30.1758 700.005h216.92l30.1699 -700.005h-104.779l-12.833 297.502h-42.0586zM136.14 402.498h32.999l-8.29492 192.501h-16.4092z" />
    <glyph glyph-name="A" unicode="&#xc2;" horiz-adv-x="306" 
d="M118.762 -0.00488281h-104.762l30.1758 700.005h216.92l30.1699 -700.005h-104.779l-12.833 297.502h-42.0586zM136.14 402.498h32.999l-8.29492 192.501h-16.4092z" />
    <glyph glyph-name="A" unicode="&#xc1;" horiz-adv-x="306" 
d="M118.762 -0.00488281h-104.762l30.1758 700.005h216.92l30.1699 -700.005h-104.779l-12.833 297.502h-42.0586zM136.14 402.498h32.999l-8.29492 192.501h-16.4092z" />
    <glyph glyph-name="A" unicode="&#xc0;" horiz-adv-x="306" 
d="M118.762 -0.00488281h-104.762l30.1758 700.005h216.92l30.1699 -700.005h-104.779l-12.833 297.502h-42.0586zM136.14 402.498h32.999l-8.29492 192.501h-16.4092z" />
    <glyph glyph-name="A" unicode="&#xc5;" horiz-adv-x="306" 
d="M118.762 -0.00488281h-104.762l30.1758 700.005h216.92l30.1699 -700.005h-104.779l-12.833 297.502h-42.0586zM136.14 402.498h32.999l-8.29492 192.501h-16.4092z" />
    <glyph glyph-name="A" unicode="&#xc4;" horiz-adv-x="306" 
d="M118.762 -0.00488281h-104.762l30.1758 700.005h216.92l30.1699 -700.005h-104.779l-12.833 297.502h-42.0586zM136.14 402.498h32.999l-8.29492 192.501h-16.4092z" />
    <glyph glyph-name="A" unicode="&#xc3;" horiz-adv-x="306" 
d="M118.762 -0.00488281h-104.762l30.1758 700.005h216.92l30.1699 -700.005h-104.779l-12.833 297.502h-42.0586zM136.14 402.498h32.999l-8.29492 192.501h-16.4092z" />
    <glyph glyph-name="A" unicode="&#xc2;" horiz-adv-x="306" 
d="M118.762 -0.00488281h-104.762l30.1758 700.005h216.92l30.1699 -700.005h-104.779l-12.833 297.502h-42.0586zM136.14 402.498h32.999l-8.29492 192.501h-16.4092z" />
    <glyph glyph-name="A" unicode="&#xc1;" horiz-adv-x="306" 
d="M118.762 -0.00488281h-104.762l30.1758 700.005h216.92l30.1699 -700.005h-104.779l-12.833 297.502h-42.0586zM136.14 402.498h32.999l-8.29492 192.501h-16.4092z" />
    <glyph glyph-name="A" unicode="&#xc0;" horiz-adv-x="306" 
d="M118.762 -0.00488281h-104.762l30.1758 700.005h216.92l30.1699 -700.005h-104.779l-12.833 297.502h-42.0586zM136.14 402.498h32.999l-8.29492 192.501h-16.4092z" />
    <glyph glyph-name="B" unicode="B" horiz-adv-x="324" 
d="M25 700l140.001 -0.000976562c77.2588 -0.147461 139.853 -62.7412 140 -140v-122.501c0.0175781 -31.835 -10.8691 -62.7148 -30.8467 -87.501c19.9775 -24.7861 30.8643 -55.666 30.8467 -87.501v-122.501c-0.147461 -77.2588 -62.7412 -139.853 -140 -140h-140.001
v700.005zM200.001 262.496c-0.133789 19.2744 -15.7256 34.8662 -35 35h-35v-192.501h35c19.2754 0.130859 34.8691 15.7246 35 35v122.501zM200.001 559.998c-0.133789 19.2744 -15.7256 34.8662 -35 35h-35v-192.501h35c19.2744 0.133789 34.8662 15.7256 35 35v122.501z
" />
    <glyph glyph-name="C" unicode="C" horiz-adv-x="315" 
d="M195.001 262.497h105.001v-122.501c0 -77.3203 -62.6807 -140.001 -140.001 -140.001s-140.001 62.6807 -140.001 140.001v420.003c0 77.3203 62.6807 140.001 140.001 140.001s140.001 -62.6807 140.001 -140.001v-122.501h-105.001v122.501
c0 19.3301 -15.6699 35 -35 35s-35 -15.6699 -35 -35v-420.003c0 -19.3301 15.6699 -35 35 -35s35 15.6699 35 35v122.501z" />
    <glyph glyph-name="C" unicode="&#xc7;" horiz-adv-x="315" 
d="M195.001 262.497h105.001v-122.501c0 -77.3203 -62.6807 -140.001 -140.001 -140.001s-140.001 62.6807 -140.001 140.001v420.003c0 77.3203 62.6807 140.001 140.001 140.001s140.001 -62.6807 140.001 -140.001v-122.501h-105.001v122.501
c0 19.3301 -15.6699 35 -35 35s-35 -15.6699 -35 -35v-420.003c0 -19.3301 15.6699 -35 35 -35s35 15.6699 35 35v122.501z" />
    <glyph glyph-name="C" unicode="&#xc7;" horiz-adv-x="315" 
d="M195.001 262.497h105.001v-122.501c0 -77.3203 -62.6807 -140.001 -140.001 -140.001s-140.001 62.6807 -140.001 140.001v420.003c0 77.3203 62.6807 140.001 140.001 140.001s140.001 -62.6807 140.001 -140.001v-122.501h-105.001v122.501
c0 19.3301 -15.6699 35 -35 35s-35 -15.6699 -35 -35v-420.003c0 -19.3301 15.6699 -35 35 -35s35 15.6699 35 35v122.501z" />
    <glyph glyph-name="D" unicode="D" horiz-adv-x="326" 
d="M25 700l140.002 -0.000976562c77.2588 -0.147461 139.853 -62.7412 140 -140v-420.003c-0.150391 -77.2578 -62.7432 -139.851 -140.001 -140.001h-140.001v700.005zM200.002 559.998c-0.133789 19.2744 -15.7266 34.8662 -35.001 35h-35v-490.004h35
c19.2734 0.136719 34.8643 15.7275 35.001 35.001v420.003z" />
    <glyph glyph-name="E" unicode="E" horiz-adv-x="257" 
d="M252.502 700v-105h-122.501v-192.496h64.167v-105.001h-64.167v-192.501h122.501v-105.001h-227.502v699.999h227.502z" />
    <glyph glyph-name="E" unicode="&#xcb;" horiz-adv-x="257" 
d="M252.502 700v-105h-122.501v-192.496h64.167v-105.001h-64.167v-192.501h122.501v-105.001h-227.502v699.999h227.502z" />
    <glyph glyph-name="E" unicode="&#xca;" horiz-adv-x="257" 
d="M252.502 700v-105h-122.501v-192.496h64.167v-105.001h-64.167v-192.501h122.501v-105.001h-227.502v699.999h227.502z" />
    <glyph glyph-name="E" unicode="&#xc9;" horiz-adv-x="257" 
d="M252.502 700v-105h-122.501v-192.496h64.167v-105.001h-64.167v-192.501h122.501v-105.001h-227.502v699.999h227.502z" />
    <glyph glyph-name="E" unicode="&#xc8;" horiz-adv-x="257" 
d="M252.502 700v-105h-122.501v-192.496h64.167v-105.001h-64.167v-192.501h122.501v-105.001h-227.502v699.999h227.502z" />
    <glyph glyph-name="E" unicode="&#xcb;" horiz-adv-x="257" 
d="M252.502 700v-105h-122.501v-192.496h64.167v-105.001h-64.167v-192.501h122.501v-105.001h-227.502v699.999h227.502z" />
    <glyph glyph-name="E" unicode="&#xca;" horiz-adv-x="257" 
d="M252.502 700v-105h-122.501v-192.496h64.167v-105.001h-64.167v-192.501h122.501v-105.001h-227.502v699.999h227.502z" />
    <glyph glyph-name="E" unicode="&#xc9;" horiz-adv-x="257" 
d="M252.502 700v-105h-122.501v-192.496h64.167v-105.001h-64.167v-192.501h122.501v-105.001h-227.502v699.999h227.502z" />
    <glyph glyph-name="E" unicode="&#xc8;" horiz-adv-x="257" 
d="M252.502 700v-105h-122.501v-192.496h64.167v-105.001h-64.167v-192.501h122.501v-105.001h-227.502v699.999h227.502z" />
    <glyph glyph-name="F" unicode="F" horiz-adv-x="248" 
d="M252.502 700v-105h-122.501v-192.496h64.167v-105.001h-64.167v-297.508h-105.001v700.005h227.502z" />
    <glyph glyph-name="G" unicode="G" horiz-adv-x="323" 
d="M300.002 437.504l-104.999 -0.00488281v122.501c0 19.3301 -15.6699 35 -35 35s-35 -15.6699 -35 -35v-420.003c0 -19.3301 15.6699 -35 35 -35s35 15.6699 35 35v157.501h-35v105.001h140.001v-402.503h-105.001v4.45117
c-41.9189 -10.749 -86.4521 -1.53516 -120.664 24.9648s-54.2666 67.3154 -54.3389 110.59v420.003c0 77.3203 62.6807 140.001 140.001 140.001s140.001 -62.6807 140.001 -140.001v-122.501z" />
    <glyph glyph-name="H" unicode="H" 
d="M25 700.006h105.001v-297.502h70.001v297.502h105.001v-700.011h-105.001v297.508h-70.001v-297.508h-105.001v700.011z" />
    <glyph glyph-name="I" unicode="I" horiz-adv-x="156" 
d="M130.001 -0.00488281h-105.001v700.011h105.001v-700.011z" />
    <glyph glyph-name="I" unicode="&#xcf;" horiz-adv-x="156" 
d="M130.001 -0.00488281h-105.001v700.011h105.001v-700.011z" />
    <glyph glyph-name="I" unicode="&#xce;" horiz-adv-x="156" 
d="M130.001 -0.00488281h-105.001v700.011h105.001v-700.011z" />
    <glyph glyph-name="I" unicode="&#xcd;" horiz-adv-x="156" 
d="M130.001 -0.00488281h-105.001v700.011h105.001v-700.011z" />
    <glyph glyph-name="I" unicode="&#xcc;" horiz-adv-x="156" 
d="M130.001 -0.00488281h-105.001v700.011h105.001v-700.011z" />
    <glyph glyph-name="I" unicode="&#xcf;" horiz-adv-x="156" 
d="M130.001 -0.00488281h-105.001v700.011h105.001v-700.011z" />
    <glyph glyph-name="I" unicode="&#xce;" horiz-adv-x="156" 
d="M130.001 -0.00488281h-105.001v700.011h105.001v-700.011z" />
    <glyph glyph-name="I" unicode="&#xcd;" horiz-adv-x="156" 
d="M130.001 -0.00488281h-105.001v700.011h105.001v-700.011z" />
    <glyph glyph-name="I" unicode="&#xcc;" horiz-adv-x="156" 
d="M130.001 -0.00488281h-105.001v700.011h105.001v-700.011z" />
    <glyph glyph-name="J" unicode="J" horiz-adv-x="299" 
d="M-4 262.497h105.001v-122.501c0 -19.3301 15.6699 -35 35 -35s35 15.6699 35 35v560.004h105.001v-560.004c0 -77.3203 -62.6807 -140.001 -140.001 -140.001s-140.001 62.6807 -140.001 140.001v122.501z" />
    <glyph glyph-name="K" unicode="K" horiz-adv-x="329" 
d="M25 700l105.001 0.000976562v-297.502h35c19.2744 0.133789 34.8662 15.7256 35 35v262.502h105.001v-262.502c0.0175781 -31.835 -10.8691 -62.7148 -30.8467 -87.501c19.9775 -24.7861 30.8643 -55.666 30.8467 -87.501v-262.502h-105.001v262.502
c-0.133789 19.2744 -15.7256 34.8662 -35 35h-35v-297.502h-105.001v700.005z" />
    <glyph glyph-name="L" unicode="L" horiz-adv-x="244" 
d="M25 700.006l105.001 0.000976562v-595.005h122.501v-105.001h-227.502v700.005z" />
    <glyph glyph-name="M" unicode="M" horiz-adv-x="447" 
d="M130.001 -0.00488281h-105.002v700.005h113.885l84.4502 -261.755l84.4502 261.755h113.885v-700.005h-105.001v386.631l-49.4492 -153.277h-87.7686l-49.4492 153.277v-386.631z" />
    <glyph glyph-name="N" unicode="N" 
d="M130.001 -0.00488281h-105.001v700.005h124.811l50.1904 -255.945v255.951h105.001v-700.005h-124.811l-50.1904 255.951v-255.957z" />
    <glyph glyph-name="N" unicode="&#xd1;" 
d="M130.001 -0.00488281h-105.001v700.005h124.811l50.1904 -255.945v255.951h105.001v-700.005h-124.811l-50.1904 255.951v-255.957z" />
    <glyph glyph-name="N" unicode="&#xd1;" 
d="M130.001 -0.00488281h-105.001v700.005h124.811l50.1904 -255.945v255.951h105.001v-700.005h-124.811l-50.1904 255.951v-255.957z" />
    <glyph glyph-name="O" unicode="O" horiz-adv-x="321" 
d="M20 559.999c0.147461 77.2588 62.7422 139.854 140.001 140.001c77.2539 -0.160156 139.841 -62.7471 140.001 -140.001v-420.003c0 -77.3203 -62.6807 -140.001 -140.001 -140.001s-140.001 62.6807 -140.001 140.001v420.003zM195.002 560
c-0.0263672 9.27148 -3.74414 18.1514 -10.3311 24.6758c-10.0078 9.94434 -25.0078 12.9072 -38.0449 7.51562s-21.5625 -18.083 -21.624 -32.1914v-420.003c0 -19.3301 15.6699 -35 35 -35s35 15.6699 35 35v420.003z" />
    <glyph glyph-name="O" unicode="&#xd8;" horiz-adv-x="321" 
d="M20 559.999c0.147461 77.2588 62.7422 139.854 140.001 140.001c77.2539 -0.160156 139.841 -62.7471 140.001 -140.001v-420.003c0 -77.3203 -62.6807 -140.001 -140.001 -140.001s-140.001 62.6807 -140.001 140.001v420.003zM195.002 560
c-0.0263672 9.27148 -3.74414 18.1514 -10.3311 24.6758c-10.0078 9.94434 -25.0078 12.9072 -38.0449 7.51562s-21.5625 -18.083 -21.624 -32.1914v-420.003c0 -19.3301 15.6699 -35 35 -35s35 15.6699 35 35v420.003z" />
    <glyph glyph-name="O" unicode="&#xd6;" horiz-adv-x="321" 
d="M20 559.999c0.147461 77.2588 62.7422 139.854 140.001 140.001c77.2539 -0.160156 139.841 -62.7471 140.001 -140.001v-420.003c0 -77.3203 -62.6807 -140.001 -140.001 -140.001s-140.001 62.6807 -140.001 140.001v420.003zM195.002 560
c-0.0263672 9.27148 -3.74414 18.1514 -10.3311 24.6758c-10.0078 9.94434 -25.0078 12.9072 -38.0449 7.51562s-21.5625 -18.083 -21.624 -32.1914v-420.003c0 -19.3301 15.6699 -35 35 -35s35 15.6699 35 35v420.003z" />
    <glyph glyph-name="O" unicode="&#xd5;" horiz-adv-x="321" 
d="M20 559.999c0.147461 77.2588 62.7422 139.854 140.001 140.001c77.2539 -0.160156 139.841 -62.7471 140.001 -140.001v-420.003c0 -77.3203 -62.6807 -140.001 -140.001 -140.001s-140.001 62.6807 -140.001 140.001v420.003zM195.002 560
c-0.0263672 9.27148 -3.74414 18.1514 -10.3311 24.6758c-10.0078 9.94434 -25.0078 12.9072 -38.0449 7.51562s-21.5625 -18.083 -21.624 -32.1914v-420.003c0 -19.3301 15.6699 -35 35 -35s35 15.6699 35 35v420.003z" />
    <glyph glyph-name="O" unicode="&#xd4;" horiz-adv-x="321" 
d="M20 559.999c0.147461 77.2588 62.7422 139.854 140.001 140.001c77.2539 -0.160156 139.841 -62.7471 140.001 -140.001v-420.003c0 -77.3203 -62.6807 -140.001 -140.001 -140.001s-140.001 62.6807 -140.001 140.001v420.003zM195.002 560
c-0.0263672 9.27148 -3.74414 18.1514 -10.3311 24.6758c-10.0078 9.94434 -25.0078 12.9072 -38.0449 7.51562s-21.5625 -18.083 -21.624 -32.1914v-420.003c0 -19.3301 15.6699 -35 35 -35s35 15.6699 35 35v420.003z" />
    <glyph glyph-name="O" unicode="&#xd3;" horiz-adv-x="321" 
d="M20 559.999c0.147461 77.2588 62.7422 139.854 140.001 140.001c77.2539 -0.160156 139.841 -62.7471 140.001 -140.001v-420.003c0 -77.3203 -62.6807 -140.001 -140.001 -140.001s-140.001 62.6807 -140.001 140.001v420.003zM195.002 560
c-0.0263672 9.27148 -3.74414 18.1514 -10.3311 24.6758c-10.0078 9.94434 -25.0078 12.9072 -38.0449 7.51562s-21.5625 -18.083 -21.624 -32.1914v-420.003c0 -19.3301 15.6699 -35 35 -35s35 15.6699 35 35v420.003z" />
    <glyph glyph-name="O" unicode="&#xd2;" horiz-adv-x="321" 
d="M20 559.999c0.147461 77.2588 62.7422 139.854 140.001 140.001c77.2539 -0.160156 139.841 -62.7471 140.001 -140.001v-420.003c0 -77.3203 -62.6807 -140.001 -140.001 -140.001s-140.001 62.6807 -140.001 140.001v420.003zM195.002 560
c-0.0263672 9.27148 -3.74414 18.1514 -10.3311 24.6758c-10.0078 9.94434 -25.0078 12.9072 -38.0449 7.51562s-21.5625 -18.083 -21.624 -32.1914v-420.003c0 -19.3301 15.6699 -35 35 -35s35 15.6699 35 35v420.003z" />
    <glyph glyph-name="O" unicode="&#xd8;" horiz-adv-x="321" 
d="M20 559.999c0.147461 77.2588 62.7422 139.854 140.001 140.001c77.2539 -0.160156 139.841 -62.7471 140.001 -140.001v-420.003c0 -77.3203 -62.6807 -140.001 -140.001 -140.001s-140.001 62.6807 -140.001 140.001v420.003zM195.002 560
c-0.0263672 9.27148 -3.74414 18.1514 -10.3311 24.6758c-10.0078 9.94434 -25.0078 12.9072 -38.0449 7.51562s-21.5625 -18.083 -21.624 -32.1914v-420.003c0 -19.3301 15.6699 -35 35 -35s35 15.6699 35 35v420.003z" />
    <glyph glyph-name="O" unicode="&#xd6;" horiz-adv-x="321" 
d="M20 559.999c0.147461 77.2588 62.7422 139.854 140.001 140.001c77.2539 -0.160156 139.841 -62.7471 140.001 -140.001v-420.003c0 -77.3203 -62.6807 -140.001 -140.001 -140.001s-140.001 62.6807 -140.001 140.001v420.003zM195.002 560
c-0.0263672 9.27148 -3.74414 18.1514 -10.3311 24.6758c-10.0078 9.94434 -25.0078 12.9072 -38.0449 7.51562s-21.5625 -18.083 -21.624 -32.1914v-420.003c0 -19.3301 15.6699 -35 35 -35s35 15.6699 35 35v420.003z" />
    <glyph glyph-name="O" unicode="&#xd5;" horiz-adv-x="321" 
d="M20 559.999c0.147461 77.2588 62.7422 139.854 140.001 140.001c77.2539 -0.160156 139.841 -62.7471 140.001 -140.001v-420.003c0 -77.3203 -62.6807 -140.001 -140.001 -140.001s-140.001 62.6807 -140.001 140.001v420.003zM195.002 560
c-0.0263672 9.27148 -3.74414 18.1514 -10.3311 24.6758c-10.0078 9.94434 -25.0078 12.9072 -38.0449 7.51562s-21.5625 -18.083 -21.624 -32.1914v-420.003c0 -19.3301 15.6699 -35 35 -35s35 15.6699 35 35v420.003z" />
    <glyph glyph-name="O" unicode="&#xd4;" horiz-adv-x="321" 
d="M20 559.999c0.147461 77.2588 62.7422 139.854 140.001 140.001c77.2539 -0.160156 139.841 -62.7471 140.001 -140.001v-420.003c0 -77.3203 -62.6807 -140.001 -140.001 -140.001s-140.001 62.6807 -140.001 140.001v420.003zM195.002 560
c-0.0263672 9.27148 -3.74414 18.1514 -10.3311 24.6758c-10.0078 9.94434 -25.0078 12.9072 -38.0449 7.51562s-21.5625 -18.083 -21.624 -32.1914v-420.003c0 -19.3301 15.6699 -35 35 -35s35 15.6699 35 35v420.003z" />
    <glyph glyph-name="O" unicode="&#xd3;" horiz-adv-x="321" 
d="M20 559.999c0.147461 77.2588 62.7422 139.854 140.001 140.001c77.2539 -0.160156 139.841 -62.7471 140.001 -140.001v-420.003c0 -77.3203 -62.6807 -140.001 -140.001 -140.001s-140.001 62.6807 -140.001 140.001v420.003zM195.002 560
c-0.0263672 9.27148 -3.74414 18.1514 -10.3311 24.6758c-10.0078 9.94434 -25.0078 12.9072 -38.0449 7.51562s-21.5625 -18.083 -21.624 -32.1914v-420.003c0 -19.3301 15.6699 -35 35 -35s35 15.6699 35 35v420.003z" />
    <glyph glyph-name="O" unicode="&#xd2;" horiz-adv-x="321" 
d="M20 559.999c0.147461 77.2588 62.7422 139.854 140.001 140.001c77.2539 -0.160156 139.841 -62.7471 140.001 -140.001v-420.003c0 -77.3203 -62.6807 -140.001 -140.001 -140.001s-140.001 62.6807 -140.001 140.001v420.003zM195.002 560
c-0.0263672 9.27148 -3.74414 18.1514 -10.3311 24.6758c-10.0078 9.94434 -25.0078 12.9072 -38.0449 7.51562s-21.5625 -18.083 -21.624 -32.1914v-420.003c0 -19.3301 15.6699 -35 35 -35s35 15.6699 35 35v420.003z" />
    <glyph glyph-name="P" unicode="P" horiz-adv-x="310" 
d="M25 700l140 0.00195312c77.2568 -0.154297 139.848 -62.7451 140.002 -140.002v-163.335c-0.157227 -77.2549 -62.7461 -139.844 -140.001 -140.001h-35v-256.669h-105.001v700.005zM200 560.001c-0.136719 19.2734 -15.7266 34.8633 -35 35h-35v-233.335h35
c19.2705 0.142578 34.8574 15.7295 35 35v163.335z" />
    <glyph glyph-name="Q" unicode="Q" horiz-adv-x="346" 
d="M160.001 699.994c77.2539 -0.160156 139.834 -62.7383 139.994 -139.992v-420.003c0.00488281 -10.9473 -1.2793 -21.8574 -3.82617 -32.5039l48.8311 -55.3408l-78.3359 -69.3184l-33.46 37.917c-43.1934 -26.46 -97.3076 -27.5342 -141.517 -2.80957
s-71.6211 71.3945 -71.6865 122.048v420.003c0.147461 77.2588 62.7412 139.853 140 140zM194.994 560.002c-0.0263672 9.27148 -3.74414 18.1514 -10.3311 24.6758c-10.0078 9.94434 -25.0078 12.9072 -38.0449 7.51562s-21.5625 -18.083 -21.624 -32.1914v-420.003
c0 -19.3301 15.6699 -35 35 -35s35 15.6699 35 35v420.003z" />
    <glyph glyph-name="R" unicode="R" horiz-adv-x="326" 
d="M25 700l140.001 0.00195312c77.2568 -0.154297 139.848 -62.7451 140.002 -140.002v-163.335c0.00292969 -35.8369 -13.7832 -70.3018 -38.501 -96.251c24.7178 -25.9482 38.5039 -60.4131 38.5 -96.25v-204.168h-105.001v204.168
c-0.133789 19.2744 -15.7256 34.8662 -35 35h-35v-239.169h-105.001v700.005zM200.001 560.001c-0.136719 19.2734 -15.7266 34.8633 -35 35h-35v-233.335h35c19.2705 0.142578 34.8574 15.7295 35 35v163.335z" />
    <glyph glyph-name="S" unicode="S" horiz-adv-x="307" 
d="M293.002 466.665h-105.001v93.334c0 19.3301 -15.6699 35 -35 35s-35 -15.6699 -35 -35v-76.1777l175.001 -233.335v-110.49c0 -77.3203 -62.6807 -140.001 -140.001 -140.001s-140.001 62.6807 -140.001 140.001v93.334h105.001v-93.334c0 -19.3301 15.6699 -35 35 -35
s35 15.6699 35 35v76.1777l-175.001 233.335v110.49c0 77.3203 62.6807 140.001 140.001 140.001s140.001 -62.6807 140.001 -140.001v-93.334z" />
    <glyph glyph-name="T" unicode="T" horiz-adv-x="280" 
d="M-6 700h291.669v-105.001h-93.334v-595.005h-105.001v595.005h-93.334v105.001z" />
    <glyph glyph-name="U" unicode="U" horiz-adv-x="325" 
d="M197.001 700h105.001v-560.004c0 -77.3203 -62.6807 -140.001 -140.001 -140.001s-140.001 62.6807 -140.001 140.001v560.004h105.001v-560.004c0 -19.3301 15.6699 -35 35 -35s35 15.6699 35 35v560.004z" />
    <glyph glyph-name="U" unicode="&#xdc;" horiz-adv-x="325" 
d="M197.001 700h105.001v-560.004c0 -77.3203 -62.6807 -140.001 -140.001 -140.001s-140.001 62.6807 -140.001 140.001v560.004h105.001v-560.004c0 -19.3301 15.6699 -35 35 -35s35 15.6699 35 35v560.004z" />
    <glyph glyph-name="U" unicode="&#xdb;" horiz-adv-x="325" 
d="M197.001 700h105.001v-560.004c0 -77.3203 -62.6807 -140.001 -140.001 -140.001s-140.001 62.6807 -140.001 140.001v560.004h105.001v-560.004c0 -19.3301 15.6699 -35 35 -35s35 15.6699 35 35v560.004z" />
    <glyph glyph-name="U" unicode="&#xda;" horiz-adv-x="325" 
d="M197.001 700h105.001v-560.004c0 -77.3203 -62.6807 -140.001 -140.001 -140.001s-140.001 62.6807 -140.001 140.001v560.004h105.001v-560.004c0 -19.3301 15.6699 -35 35 -35s35 15.6699 35 35v560.004z" />
    <glyph glyph-name="U" unicode="&#xd9;" horiz-adv-x="325" 
d="M197.001 700h105.001v-560.004c0 -77.3203 -62.6807 -140.001 -140.001 -140.001s-140.001 62.6807 -140.001 140.001v560.004h105.001v-560.004c0 -19.3301 15.6699 -35 35 -35s35 15.6699 35 35v560.004z" />
    <glyph glyph-name="U" unicode="&#xdc;" horiz-adv-x="325" 
d="M197.001 700h105.001v-560.004c0 -77.3203 -62.6807 -140.001 -140.001 -140.001s-140.001 62.6807 -140.001 140.001v560.004h105.001v-560.004c0 -19.3301 15.6699 -35 35 -35s35 15.6699 35 35v560.004z" />
    <glyph glyph-name="U" unicode="&#xdb;" horiz-adv-x="325" 
d="M197.001 700h105.001v-560.004c0 -77.3203 -62.6807 -140.001 -140.001 -140.001s-140.001 62.6807 -140.001 140.001v560.004h105.001v-560.004c0 -19.3301 15.6699 -35 35 -35s35 15.6699 35 35v560.004z" />
    <glyph glyph-name="U" unicode="&#xda;" horiz-adv-x="325" 
d="M197.001 700h105.001v-560.004c0 -77.3203 -62.6807 -140.001 -140.001 -140.001s-140.001 62.6807 -140.001 140.001v560.004h105.001v-560.004c0 -19.3301 15.6699 -35 35 -35s35 15.6699 35 35v560.004z" />
    <glyph glyph-name="U" unicode="&#xd9;" horiz-adv-x="325" 
d="M197.001 700h105.001v-560.004c0 -77.3203 -62.6807 -140.001 -140.001 -140.001s-140.001 62.6807 -140.001 140.001v560.004h105.001v-560.004c0 -19.3301 15.6699 -35 35 -35s35 15.6699 35 35v560.004z" />
    <glyph glyph-name="V" unicode="V" horiz-adv-x="306" 
d="M14 700.006h104.778l25.6494 -595.005h16.4092l25.6494 595.005h104.779l-30.1758 -700.005h-216.92z" />
    <glyph glyph-name="W" unicode="W" horiz-adv-x="446" 
d="M9 700.006h105.065l19.9912 -289.825l36.9365 289.825h103.729l36.9365 -289.825l19.9912 289.825h105.07l-48.2832 -700.005h-129.938l-35.6416 279.646l-35.6416 -279.646h-129.938z" />
    <glyph glyph-name="X" unicode="X" horiz-adv-x="279" 
d="M3 700.006h107.736l28.7061 -121.673l28.7061 121.673h107.742l-82.5771 -350.003l82.5771 -350.009h-107.742l-28.7061 121.673l-28.7061 -121.673h-107.736l82.5771 350.009z" />
    <glyph glyph-name="Y" unicode="Y" horiz-adv-x="317" 
d="M186.001 700h105v-700.005h-105.001v180.835h-35c-77.2588 0.147461 -139.853 62.7412 -140 140v379.17h105.001v-379.17c0.133789 -19.2744 15.7256 -34.8662 35 -35h35v414.17z" />
    <glyph glyph-name="Y" unicode="&#x178;" horiz-adv-x="317" 
d="M186.001 700h105v-700.005h-105.001v180.835h-35c-77.2588 0.147461 -139.853 62.7412 -140 140v379.17h105.001v-379.17c0.133789 -19.2744 15.7256 -34.8662 35 -35h35v414.17z" />
    <glyph glyph-name="Y" unicode="&#xdd;" horiz-adv-x="317" 
d="M186.001 700h105v-700.005h-105.001v180.835h-35c-77.2588 0.147461 -139.853 62.7412 -140 140v379.17h105.001v-379.17c0.133789 -19.2744 15.7256 -34.8662 35 -35h35v414.17z" />
    <glyph glyph-name="Y" unicode="&#x178;" horiz-adv-x="317" 
d="M186.001 700h105v-700.005h-105.001v180.835h-35c-77.2588 0.147461 -139.853 62.7412 -140 140v379.17h105.001v-379.17c0.133789 -19.2744 15.7256 -34.8662 35 -35h35v414.17z" />
    <glyph glyph-name="Y" unicode="&#xdd;" horiz-adv-x="317" 
d="M186.001 700h105v-700.005h-105.001v180.835h-35c-77.2588 0.147461 -139.853 62.7412 -140 140v379.17h105.001v-379.17c0.133789 -19.2744 15.7256 -34.8662 35 -35h35v414.17z" />
    <glyph glyph-name="Z" unicode="Z" horiz-adv-x="291" 
d="M28.334 595.215v104.587h256.669v-186.686l-175.001 -350.015v-58.3105h151.674v-104.593h-256.675v186.686l175.001 350.015v58.3105z" />
    <glyph glyph-name="bracketleft" unicode="[" horiz-adv-x="204" 
d="M194.168 647.51l-64.167 0.000976562v-595.011h64.167v-105.001h-169.168v805.012h169.168v-105.001z" />
    <glyph glyph-name="backslash" unicode="\" horiz-adv-x="433" 
d="M149.255 716.419l233.335 -700.011l-99.2549 -32.8125l-233.335 700.005z" />
    <glyph glyph-name="bracketright" unicode="]" horiz-adv-x="204" 
d="M9 752.511l169.168 -0.000976562v-805.012h-169.168v105.001h64.167v595.011h-64.167v105.001z" />
    <glyph glyph-name="asciicircum" unicode="^" horiz-adv-x="307" 
d="M223.438 752.511l68.2812 -273.125l-101.717 -25.4277l-36.6396 146.569l-36.6455 -146.569l-101.717 25.4277l68.2793 273.125h140.158z" />
    <glyph glyph-name="underscore" unicode="_" horiz-adv-x="381" 
d="M365.003 -0.000976562h-350.003v105.001h350.003v-105.001z" />
    <glyph glyph-name="grave" unicode="`" horiz-adv-x="227" 
d="M214.093 554.476l-87.3604 -58.2754l-116.732 174.993l87.3604 58.2754z" />
    <glyph glyph-name="a" unicode="a" horiz-adv-x="306" 
d="M118.762 -0.00488281h-104.762l30.1758 700.005h216.92l30.1699 -700.005h-104.779l-12.833 297.502h-42.0586zM136.14 402.498h32.999l-8.29492 192.501h-16.4092z" />
    <glyph glyph-name="a" unicode="&#xe5;" horiz-adv-x="306" 
d="M118.762 -0.00488281h-104.762l30.1758 700.005h216.92l30.1699 -700.005h-104.779l-12.833 297.502h-42.0586zM136.14 402.498h32.999l-8.29492 192.501h-16.4092z" />
    <glyph glyph-name="a" unicode="&#xe4;" horiz-adv-x="306" 
d="M118.762 -0.00488281h-104.762l30.1758 700.005h216.92l30.1699 -700.005h-104.779l-12.833 297.502h-42.0586zM136.14 402.498h32.999l-8.29492 192.501h-16.4092z" />
    <glyph glyph-name="a" unicode="&#xe3;" horiz-adv-x="306" 
d="M118.762 -0.00488281h-104.762l30.1758 700.005h216.92l30.1699 -700.005h-104.779l-12.833 297.502h-42.0586zM136.14 402.498h32.999l-8.29492 192.501h-16.4092z" />
    <glyph glyph-name="a" unicode="&#xe2;" horiz-adv-x="306" 
d="M118.762 -0.00488281h-104.762l30.1758 700.005h216.92l30.1699 -700.005h-104.779l-12.833 297.502h-42.0586zM136.14 402.498h32.999l-8.29492 192.501h-16.4092z" />
    <glyph glyph-name="a" unicode="&#xe1;" horiz-adv-x="306" 
d="M118.762 -0.00488281h-104.762l30.1758 700.005h216.92l30.1699 -700.005h-104.779l-12.833 297.502h-42.0586zM136.14 402.498h32.999l-8.29492 192.501h-16.4092z" />
    <glyph glyph-name="a" unicode="&#xe0;" horiz-adv-x="306" 
d="M118.762 -0.00488281h-104.762l30.1758 700.005h216.92l30.1699 -700.005h-104.779l-12.833 297.502h-42.0586zM136.14 402.498h32.999l-8.29492 192.501h-16.4092z" />
    <glyph glyph-name="a" unicode="&#xe5;" horiz-adv-x="306" 
d="M118.762 -0.00488281h-104.762l30.1758 700.005h216.92l30.1699 -700.005h-104.779l-12.833 297.502h-42.0586zM136.14 402.498h32.999l-8.29492 192.501h-16.4092z" />
    <glyph glyph-name="a" unicode="&#xe4;" horiz-adv-x="306" 
d="M118.762 -0.00488281h-104.762l30.1758 700.005h216.92l30.1699 -700.005h-104.779l-12.833 297.502h-42.0586zM136.14 402.498h32.999l-8.29492 192.501h-16.4092z" />
    <glyph glyph-name="a" unicode="&#xe3;" horiz-adv-x="306" 
d="M118.762 -0.00488281h-104.762l30.1758 700.005h216.92l30.1699 -700.005h-104.779l-12.833 297.502h-42.0586zM136.14 402.498h32.999l-8.29492 192.501h-16.4092z" />
    <glyph glyph-name="a" unicode="&#xe2;" horiz-adv-x="306" 
d="M118.762 -0.00488281h-104.762l30.1758 700.005h216.92l30.1699 -700.005h-104.779l-12.833 297.502h-42.0586zM136.14 402.498h32.999l-8.29492 192.501h-16.4092z" />
    <glyph glyph-name="a" unicode="&#xe1;" horiz-adv-x="306" 
d="M118.762 -0.00488281h-104.762l30.1758 700.005h216.92l30.1699 -700.005h-104.779l-12.833 297.502h-42.0586zM136.14 402.498h32.999l-8.29492 192.501h-16.4092z" />
    <glyph glyph-name="a" unicode="&#xe0;" horiz-adv-x="306" 
d="M118.762 -0.00488281h-104.762l30.1758 700.005h216.92l30.1699 -700.005h-104.779l-12.833 297.502h-42.0586zM136.14 402.498h32.999l-8.29492 192.501h-16.4092z" />
    <glyph glyph-name="b" unicode="b" horiz-adv-x="324" 
d="M25 700l140.001 -0.000976562c77.2588 -0.147461 139.853 -62.7412 140 -140v-122.501c0.0175781 -31.835 -10.8691 -62.7148 -30.8467 -87.501c19.9775 -24.7861 30.8643 -55.666 30.8467 -87.501v-122.501c-0.147461 -77.2588 -62.7412 -139.853 -140 -140h-140.001
v700.005zM200.001 262.496c-0.133789 19.2744 -15.7256 34.8662 -35 35h-35v-192.501h35c19.2754 0.130859 34.8691 15.7246 35 35v122.501zM200.001 559.998c-0.133789 19.2744 -15.7256 34.8662 -35 35h-35v-192.501h35c19.2744 0.133789 34.8662 15.7256 35 35v122.501z
" />
    <glyph glyph-name="c" unicode="c" horiz-adv-x="315" 
d="M195.001 262.497h105.001v-122.501c0 -77.3203 -62.6807 -140.001 -140.001 -140.001s-140.001 62.6807 -140.001 140.001v420.003c0 77.3203 62.6807 140.001 140.001 140.001s140.001 -62.6807 140.001 -140.001v-122.501h-105.001v122.501
c0 19.3301 -15.6699 35 -35 35s-35 -15.6699 -35 -35v-420.003c0 -19.3301 15.6699 -35 35 -35s35 15.6699 35 35v122.501z" />
    <glyph glyph-name="c" unicode="&#xe7;" horiz-adv-x="315" 
d="M195.001 262.497h105.001v-122.501c0 -77.3203 -62.6807 -140.001 -140.001 -140.001s-140.001 62.6807 -140.001 140.001v420.003c0 77.3203 62.6807 140.001 140.001 140.001s140.001 -62.6807 140.001 -140.001v-122.501h-105.001v122.501
c0 19.3301 -15.6699 35 -35 35s-35 -15.6699 -35 -35v-420.003c0 -19.3301 15.6699 -35 35 -35s35 15.6699 35 35v122.501z" />
    <glyph glyph-name="c" unicode="&#xe7;" horiz-adv-x="315" 
d="M195.001 262.497h105.001v-122.501c0 -77.3203 -62.6807 -140.001 -140.001 -140.001s-140.001 62.6807 -140.001 140.001v420.003c0 77.3203 62.6807 140.001 140.001 140.001s140.001 -62.6807 140.001 -140.001v-122.501h-105.001v122.501
c0 19.3301 -15.6699 35 -35 35s-35 -15.6699 -35 -35v-420.003c0 -19.3301 15.6699 -35 35 -35s35 15.6699 35 35v122.501z" />
    <glyph glyph-name="d" unicode="d" horiz-adv-x="326" 
d="M25 700l140.002 -0.000976562c77.2588 -0.147461 139.853 -62.7412 140 -140v-420.003c-0.150391 -77.2578 -62.7432 -139.851 -140.001 -140.001h-140.001v700.005zM200.002 559.998c-0.133789 19.2744 -15.7266 34.8662 -35.001 35h-35v-490.004h35
c19.2734 0.136719 34.8643 15.7275 35.001 35.001v420.003z" />
    <glyph glyph-name="e" unicode="e" horiz-adv-x="257" 
d="M252.502 700v-105h-122.501v-192.496h64.167v-105.001h-64.167v-192.501h122.501v-105.001h-227.502v699.999h227.502z" />
    <glyph glyph-name="e" unicode="&#xeb;" horiz-adv-x="257" 
d="M252.502 700v-105h-122.501v-192.496h64.167v-105.001h-64.167v-192.501h122.501v-105.001h-227.502v699.999h227.502z" />
    <glyph glyph-name="e" unicode="&#xea;" horiz-adv-x="257" 
d="M252.502 700v-105h-122.501v-192.496h64.167v-105.001h-64.167v-192.501h122.501v-105.001h-227.502v699.999h227.502z" />
    <glyph glyph-name="e" unicode="&#xe9;" horiz-adv-x="257" 
d="M252.502 700v-105h-122.501v-192.496h64.167v-105.001h-64.167v-192.501h122.501v-105.001h-227.502v699.999h227.502z" />
    <glyph glyph-name="e" unicode="&#xe8;" horiz-adv-x="257" 
d="M252.502 700v-105h-122.501v-192.496h64.167v-105.001h-64.167v-192.501h122.501v-105.001h-227.502v699.999h227.502z" />
    <glyph glyph-name="e" unicode="&#xeb;" horiz-adv-x="257" 
d="M252.502 700v-105h-122.501v-192.496h64.167v-105.001h-64.167v-192.501h122.501v-105.001h-227.502v699.999h227.502z" />
    <glyph glyph-name="e" unicode="&#xea;" horiz-adv-x="257" 
d="M252.502 700v-105h-122.501v-192.496h64.167v-105.001h-64.167v-192.501h122.501v-105.001h-227.502v699.999h227.502z" />
    <glyph glyph-name="e" unicode="&#xe9;" horiz-adv-x="257" 
d="M252.502 700v-105h-122.501v-192.496h64.167v-105.001h-64.167v-192.501h122.501v-105.001h-227.502v699.999h227.502z" />
    <glyph glyph-name="e" unicode="&#xe8;" horiz-adv-x="257" 
d="M252.502 700v-105h-122.501v-192.496h64.167v-105.001h-64.167v-192.501h122.501v-105.001h-227.502v699.999h227.502z" />
    <glyph glyph-name="f" unicode="f" horiz-adv-x="248" 
d="M252.502 700v-105h-122.501v-192.496h64.167v-105.001h-64.167v-297.508h-105.001v700.005h227.502z" />
    <glyph glyph-name="g" unicode="g" horiz-adv-x="323" 
d="M300.002 437.504l-104.999 -0.00488281v122.501c0 19.3301 -15.6699 35 -35 35s-35 -15.6699 -35 -35v-420.003c0 -19.3301 15.6699 -35 35 -35s35 15.6699 35 35v157.501h-35v105.001h140.001v-402.503h-105.001v4.45117
c-41.9189 -10.749 -86.4521 -1.53516 -120.664 24.9648s-54.2666 67.3154 -54.3389 110.59v420.003c0 77.3203 62.6807 140.001 140.001 140.001s140.001 -62.6807 140.001 -140.001v-122.501z" />
    <glyph glyph-name="h" unicode="h" 
d="M25 700.006h105.001v-297.502h70.001v297.502h105.001v-700.011h-105.001v297.508h-70.001v-297.508h-105.001v700.011z" />
    <glyph glyph-name="i" unicode="i" horiz-adv-x="156" 
d="M130.001 -0.00488281h-105.001v700.011h105.001v-700.011z" />
    <glyph glyph-name="i" unicode="&#xef;" horiz-adv-x="156" 
d="M130.001 -0.00488281h-105.001v700.011h105.001v-700.011z" />
    <glyph glyph-name="i" unicode="&#xee;" horiz-adv-x="156" 
d="M130.001 -0.00488281h-105.001v700.011h105.001v-700.011z" />
    <glyph glyph-name="i" unicode="&#xed;" horiz-adv-x="156" 
d="M130.001 -0.00488281h-105.001v700.011h105.001v-700.011z" />
    <glyph glyph-name="i" unicode="&#xec;" horiz-adv-x="156" 
d="M130.001 -0.00488281h-105.001v700.011h105.001v-700.011z" />
    <glyph glyph-name="i" unicode="&#xef;" horiz-adv-x="156" 
d="M130.001 -0.00488281h-105.001v700.011h105.001v-700.011z" />
    <glyph glyph-name="i" unicode="&#xee;" horiz-adv-x="156" 
d="M130.001 -0.00488281h-105.001v700.011h105.001v-700.011z" />
    <glyph glyph-name="i" unicode="&#xed;" horiz-adv-x="156" 
d="M130.001 -0.00488281h-105.001v700.011h105.001v-700.011z" />
    <glyph glyph-name="i" unicode="&#xec;" horiz-adv-x="156" 
d="M130.001 -0.00488281h-105.001v700.011h105.001v-700.011z" />
    <glyph glyph-name="j" unicode="j" horiz-adv-x="299" 
d="M-4 262.497h105.001v-122.501c0 -19.3301 15.6699 -35 35 -35s35 15.6699 35 35v560.004h105.001v-560.004c0 -77.3203 -62.6807 -140.001 -140.001 -140.001s-140.001 62.6807 -140.001 140.001v122.501z" />
    <glyph glyph-name="k" unicode="k" horiz-adv-x="329" 
d="M25 700l105.001 0.000976562v-297.502h35c19.2744 0.133789 34.8662 15.7256 35 35v262.502h105.001v-262.502c0.0175781 -31.835 -10.8691 -62.7148 -30.8467 -87.501c19.9775 -24.7861 30.8643 -55.666 30.8467 -87.501v-262.502h-105.001v262.502
c-0.133789 19.2744 -15.7256 34.8662 -35 35h-35v-297.502h-105.001v700.005z" />
    <glyph glyph-name="l" unicode="l" horiz-adv-x="244" 
d="M25 700.006l105.001 0.000976562v-595.005h122.501v-105.001h-227.502v700.005z" />
    <glyph glyph-name="m" unicode="m" horiz-adv-x="447" 
d="M130.001 -0.00488281h-105.002v700.005h113.885l84.4502 -261.755l84.4502 261.755h113.885v-700.005h-105.001v386.631l-49.4492 -153.277h-87.7686l-49.4492 153.277v-386.631z" />
    <glyph glyph-name="n" unicode="n" 
d="M130.001 -0.00488281h-105.001v700.005h124.811l50.1904 -255.945v255.951h105.001v-700.005h-124.811l-50.1904 255.951v-255.957z" />
    <glyph glyph-name="n" unicode="&#xf1;" 
d="M130.001 -0.00488281h-105.001v700.005h124.811l50.1904 -255.945v255.951h105.001v-700.005h-124.811l-50.1904 255.951v-255.957z" />
    <glyph glyph-name="n" unicode="&#xf1;" 
d="M130.001 -0.00488281h-105.001v700.005h124.811l50.1904 -255.945v255.951h105.001v-700.005h-124.811l-50.1904 255.951v-255.957z" />
    <glyph glyph-name="o" unicode="o" horiz-adv-x="321" 
d="M20 559.999c0.147461 77.2588 62.7422 139.854 140.001 140.001c77.2539 -0.160156 139.841 -62.7471 140.001 -140.001v-420.003c0 -77.3203 -62.6807 -140.001 -140.001 -140.001s-140.001 62.6807 -140.001 140.001v420.003zM195.002 560
c-0.0263672 9.27148 -3.74414 18.1514 -10.3311 24.6758c-10.0078 9.94434 -25.0078 12.9072 -38.0449 7.51562s-21.5625 -18.083 -21.624 -32.1914v-420.003c0 -19.3301 15.6699 -35 35 -35s35 15.6699 35 35v420.003z" />
    <glyph glyph-name="o" unicode="&#xf8;" horiz-adv-x="321" 
d="M20 559.999c0.147461 77.2588 62.7422 139.854 140.001 140.001c77.2539 -0.160156 139.841 -62.7471 140.001 -140.001v-420.003c0 -77.3203 -62.6807 -140.001 -140.001 -140.001s-140.001 62.6807 -140.001 140.001v420.003zM195.002 560
c-0.0263672 9.27148 -3.74414 18.1514 -10.3311 24.6758c-10.0078 9.94434 -25.0078 12.9072 -38.0449 7.51562s-21.5625 -18.083 -21.624 -32.1914v-420.003c0 -19.3301 15.6699 -35 35 -35s35 15.6699 35 35v420.003z" />
    <glyph glyph-name="o" unicode="&#xf6;" horiz-adv-x="321" 
d="M20 559.999c0.147461 77.2588 62.7422 139.854 140.001 140.001c77.2539 -0.160156 139.841 -62.7471 140.001 -140.001v-420.003c0 -77.3203 -62.6807 -140.001 -140.001 -140.001s-140.001 62.6807 -140.001 140.001v420.003zM195.002 560
c-0.0263672 9.27148 -3.74414 18.1514 -10.3311 24.6758c-10.0078 9.94434 -25.0078 12.9072 -38.0449 7.51562s-21.5625 -18.083 -21.624 -32.1914v-420.003c0 -19.3301 15.6699 -35 35 -35s35 15.6699 35 35v420.003z" />
    <glyph glyph-name="o" unicode="&#xf5;" horiz-adv-x="321" 
d="M20 559.999c0.147461 77.2588 62.7422 139.854 140.001 140.001c77.2539 -0.160156 139.841 -62.7471 140.001 -140.001v-420.003c0 -77.3203 -62.6807 -140.001 -140.001 -140.001s-140.001 62.6807 -140.001 140.001v420.003zM195.002 560
c-0.0263672 9.27148 -3.74414 18.1514 -10.3311 24.6758c-10.0078 9.94434 -25.0078 12.9072 -38.0449 7.51562s-21.5625 -18.083 -21.624 -32.1914v-420.003c0 -19.3301 15.6699 -35 35 -35s35 15.6699 35 35v420.003z" />
    <glyph glyph-name="o" unicode="&#xf4;" horiz-adv-x="321" 
d="M20 559.999c0.147461 77.2588 62.7422 139.854 140.001 140.001c77.2539 -0.160156 139.841 -62.7471 140.001 -140.001v-420.003c0 -77.3203 -62.6807 -140.001 -140.001 -140.001s-140.001 62.6807 -140.001 140.001v420.003zM195.002 560
c-0.0263672 9.27148 -3.74414 18.1514 -10.3311 24.6758c-10.0078 9.94434 -25.0078 12.9072 -38.0449 7.51562s-21.5625 -18.083 -21.624 -32.1914v-420.003c0 -19.3301 15.6699 -35 35 -35s35 15.6699 35 35v420.003z" />
    <glyph glyph-name="o" unicode="&#xf3;" horiz-adv-x="321" 
d="M20 559.999c0.147461 77.2588 62.7422 139.854 140.001 140.001c77.2539 -0.160156 139.841 -62.7471 140.001 -140.001v-420.003c0 -77.3203 -62.6807 -140.001 -140.001 -140.001s-140.001 62.6807 -140.001 140.001v420.003zM195.002 560
c-0.0263672 9.27148 -3.74414 18.1514 -10.3311 24.6758c-10.0078 9.94434 -25.0078 12.9072 -38.0449 7.51562s-21.5625 -18.083 -21.624 -32.1914v-420.003c0 -19.3301 15.6699 -35 35 -35s35 15.6699 35 35v420.003z" />
    <glyph glyph-name="o" unicode="&#xf2;" horiz-adv-x="321" 
d="M20 559.999c0.147461 77.2588 62.7422 139.854 140.001 140.001c77.2539 -0.160156 139.841 -62.7471 140.001 -140.001v-420.003c0 -77.3203 -62.6807 -140.001 -140.001 -140.001s-140.001 62.6807 -140.001 140.001v420.003zM195.002 560
c-0.0263672 9.27148 -3.74414 18.1514 -10.3311 24.6758c-10.0078 9.94434 -25.0078 12.9072 -38.0449 7.51562s-21.5625 -18.083 -21.624 -32.1914v-420.003c0 -19.3301 15.6699 -35 35 -35s35 15.6699 35 35v420.003z" />
    <glyph glyph-name="o" unicode="&#xf8;" horiz-adv-x="321" 
d="M20 559.999c0.147461 77.2588 62.7422 139.854 140.001 140.001c77.2539 -0.160156 139.841 -62.7471 140.001 -140.001v-420.003c0 -77.3203 -62.6807 -140.001 -140.001 -140.001s-140.001 62.6807 -140.001 140.001v420.003zM195.002 560
c-0.0263672 9.27148 -3.74414 18.1514 -10.3311 24.6758c-10.0078 9.94434 -25.0078 12.9072 -38.0449 7.51562s-21.5625 -18.083 -21.624 -32.1914v-420.003c0 -19.3301 15.6699 -35 35 -35s35 15.6699 35 35v420.003z" />
    <glyph glyph-name="o" unicode="&#xf6;" horiz-adv-x="321" 
d="M20 559.999c0.147461 77.2588 62.7422 139.854 140.001 140.001c77.2539 -0.160156 139.841 -62.7471 140.001 -140.001v-420.003c0 -77.3203 -62.6807 -140.001 -140.001 -140.001s-140.001 62.6807 -140.001 140.001v420.003zM195.002 560
c-0.0263672 9.27148 -3.74414 18.1514 -10.3311 24.6758c-10.0078 9.94434 -25.0078 12.9072 -38.0449 7.51562s-21.5625 -18.083 -21.624 -32.1914v-420.003c0 -19.3301 15.6699 -35 35 -35s35 15.6699 35 35v420.003z" />
    <glyph glyph-name="o" unicode="&#xf5;" horiz-adv-x="321" 
d="M20 559.999c0.147461 77.2588 62.7422 139.854 140.001 140.001c77.2539 -0.160156 139.841 -62.7471 140.001 -140.001v-420.003c0 -77.3203 -62.6807 -140.001 -140.001 -140.001s-140.001 62.6807 -140.001 140.001v420.003zM195.002 560
c-0.0263672 9.27148 -3.74414 18.1514 -10.3311 24.6758c-10.0078 9.94434 -25.0078 12.9072 -38.0449 7.51562s-21.5625 -18.083 -21.624 -32.1914v-420.003c0 -19.3301 15.6699 -35 35 -35s35 15.6699 35 35v420.003z" />
    <glyph glyph-name="o" unicode="&#xf4;" horiz-adv-x="321" 
d="M20 559.999c0.147461 77.2588 62.7422 139.854 140.001 140.001c77.2539 -0.160156 139.841 -62.7471 140.001 -140.001v-420.003c0 -77.3203 -62.6807 -140.001 -140.001 -140.001s-140.001 62.6807 -140.001 140.001v420.003zM195.002 560
c-0.0263672 9.27148 -3.74414 18.1514 -10.3311 24.6758c-10.0078 9.94434 -25.0078 12.9072 -38.0449 7.51562s-21.5625 -18.083 -21.624 -32.1914v-420.003c0 -19.3301 15.6699 -35 35 -35s35 15.6699 35 35v420.003z" />
    <glyph glyph-name="o" unicode="&#xf3;" horiz-adv-x="321" 
d="M20 559.999c0.147461 77.2588 62.7422 139.854 140.001 140.001c77.2539 -0.160156 139.841 -62.7471 140.001 -140.001v-420.003c0 -77.3203 -62.6807 -140.001 -140.001 -140.001s-140.001 62.6807 -140.001 140.001v420.003zM195.002 560
c-0.0263672 9.27148 -3.74414 18.1514 -10.3311 24.6758c-10.0078 9.94434 -25.0078 12.9072 -38.0449 7.51562s-21.5625 -18.083 -21.624 -32.1914v-420.003c0 -19.3301 15.6699 -35 35 -35s35 15.6699 35 35v420.003z" />
    <glyph glyph-name="o" unicode="&#xf2;" horiz-adv-x="321" 
d="M20 559.999c0.147461 77.2588 62.7422 139.854 140.001 140.001c77.2539 -0.160156 139.841 -62.7471 140.001 -140.001v-420.003c0 -77.3203 -62.6807 -140.001 -140.001 -140.001s-140.001 62.6807 -140.001 140.001v420.003zM195.002 560
c-0.0263672 9.27148 -3.74414 18.1514 -10.3311 24.6758c-10.0078 9.94434 -25.0078 12.9072 -38.0449 7.51562s-21.5625 -18.083 -21.624 -32.1914v-420.003c0 -19.3301 15.6699 -35 35 -35s35 15.6699 35 35v420.003z" />
    <glyph glyph-name="p" unicode="p" horiz-adv-x="310" 
d="M25 700l140 0.00195312c77.2568 -0.154297 139.848 -62.7451 140.002 -140.002v-163.335c-0.157227 -77.2549 -62.7461 -139.844 -140.001 -140.001h-35v-256.669h-105.001v700.005zM200 560.001c-0.136719 19.2734 -15.7266 34.8633 -35 35h-35v-233.335h35
c19.2705 0.142578 34.8574 15.7295 35 35v163.335z" />
    <glyph glyph-name="q" unicode="q" horiz-adv-x="346" 
d="M160.001 699.994c77.2539 -0.160156 139.834 -62.7383 139.994 -139.992v-420.003c0.00488281 -10.9473 -1.2793 -21.8574 -3.82617 -32.5039l48.8311 -55.3408l-78.3359 -69.3184l-33.46 37.917c-43.1934 -26.46 -97.3076 -27.5342 -141.517 -2.80957
s-71.6211 71.3945 -71.6865 122.048v420.003c0.147461 77.2588 62.7412 139.853 140 140zM194.994 560.002c-0.0263672 9.27148 -3.74414 18.1514 -10.3311 24.6758c-10.0078 9.94434 -25.0078 12.9072 -38.0449 7.51562s-21.5625 -18.083 -21.624 -32.1914v-420.003
c0 -19.3301 15.6699 -35 35 -35s35 15.6699 35 35v420.003z" />
    <glyph glyph-name="r" unicode="r" horiz-adv-x="326" 
d="M25 700l140.001 0.00195312c77.2568 -0.154297 139.848 -62.7451 140.002 -140.002v-163.335c0.00292969 -35.8369 -13.7832 -70.3018 -38.501 -96.251c24.7178 -25.9482 38.5039 -60.4131 38.5 -96.25v-204.168h-105.001v204.168
c-0.133789 19.2744 -15.7256 34.8662 -35 35h-35v-239.169h-105.001v700.005zM200.001 560.001c-0.136719 19.2734 -15.7266 34.8633 -35 35h-35v-233.335h35c19.2705 0.142578 34.8574 15.7295 35 35v163.335z" />
    <glyph glyph-name="s" unicode="s" horiz-adv-x="307" 
d="M293.002 466.665h-105.001v93.334c0 19.3301 -15.6699 35 -35 35s-35 -15.6699 -35 -35v-76.1777l175.001 -233.335v-110.49c0 -77.3203 -62.6807 -140.001 -140.001 -140.001s-140.001 62.6807 -140.001 140.001v93.334h105.001v-93.334c0 -19.3301 15.6699 -35 35 -35
s35 15.6699 35 35v76.1777l-175.001 233.335v110.49c0 77.3203 62.6807 140.001 140.001 140.001s140.001 -62.6807 140.001 -140.001v-93.334z" />
    <glyph glyph-name="t" unicode="t" horiz-adv-x="280" 
d="M-6 700h291.669v-105.001h-93.334v-595.005h-105.001v595.005h-93.334v105.001z" />
    <glyph glyph-name="u" unicode="u" horiz-adv-x="325" 
d="M197.001 700h105.001v-560.004c0 -77.3203 -62.6807 -140.001 -140.001 -140.001s-140.001 62.6807 -140.001 140.001v560.004h105.001v-560.004c0 -19.3301 15.6699 -35 35 -35s35 15.6699 35 35v560.004z" />
    <glyph glyph-name="u" unicode="&#xfc;" horiz-adv-x="325" 
d="M197.001 700h105.001v-560.004c0 -77.3203 -62.6807 -140.001 -140.001 -140.001s-140.001 62.6807 -140.001 140.001v560.004h105.001v-560.004c0 -19.3301 15.6699 -35 35 -35s35 15.6699 35 35v560.004z" />
    <glyph glyph-name="u" unicode="&#xfb;" horiz-adv-x="325" 
d="M197.001 700h105.001v-560.004c0 -77.3203 -62.6807 -140.001 -140.001 -140.001s-140.001 62.6807 -140.001 140.001v560.004h105.001v-560.004c0 -19.3301 15.6699 -35 35 -35s35 15.6699 35 35v560.004z" />
    <glyph glyph-name="u" unicode="&#xfa;" horiz-adv-x="325" 
d="M197.001 700h105.001v-560.004c0 -77.3203 -62.6807 -140.001 -140.001 -140.001s-140.001 62.6807 -140.001 140.001v560.004h105.001v-560.004c0 -19.3301 15.6699 -35 35 -35s35 15.6699 35 35v560.004z" />
    <glyph glyph-name="u" unicode="&#xf9;" horiz-adv-x="325" 
d="M197.001 700h105.001v-560.004c0 -77.3203 -62.6807 -140.001 -140.001 -140.001s-140.001 62.6807 -140.001 140.001v560.004h105.001v-560.004c0 -19.3301 15.6699 -35 35 -35s35 15.6699 35 35v560.004z" />
    <glyph glyph-name="u" unicode="&#xfc;" horiz-adv-x="325" 
d="M197.001 700h105.001v-560.004c0 -77.3203 -62.6807 -140.001 -140.001 -140.001s-140.001 62.6807 -140.001 140.001v560.004h105.001v-560.004c0 -19.3301 15.6699 -35 35 -35s35 15.6699 35 35v560.004z" />
    <glyph glyph-name="u" unicode="&#xfb;" horiz-adv-x="325" 
d="M197.001 700h105.001v-560.004c0 -77.3203 -62.6807 -140.001 -140.001 -140.001s-140.001 62.6807 -140.001 140.001v560.004h105.001v-560.004c0 -19.3301 15.6699 -35 35 -35s35 15.6699 35 35v560.004z" />
    <glyph glyph-name="u" unicode="&#xfa;" horiz-adv-x="325" 
d="M197.001 700h105.001v-560.004c0 -77.3203 -62.6807 -140.001 -140.001 -140.001s-140.001 62.6807 -140.001 140.001v560.004h105.001v-560.004c0 -19.3301 15.6699 -35 35 -35s35 15.6699 35 35v560.004z" />
    <glyph glyph-name="u" unicode="&#xf9;" horiz-adv-x="325" 
d="M197.001 700h105.001v-560.004c0 -77.3203 -62.6807 -140.001 -140.001 -140.001s-140.001 62.6807 -140.001 140.001v560.004h105.001v-560.004c0 -19.3301 15.6699 -35 35 -35s35 15.6699 35 35v560.004z" />
    <glyph glyph-name="v" unicode="v" horiz-adv-x="306" 
d="M14 700.006h104.778l25.6494 -595.005h16.4092l25.6494 595.005h104.779l-30.1758 -700.005h-216.92z" />
    <glyph glyph-name="w" unicode="w" horiz-adv-x="446" 
d="M9 700.006h105.065l19.9912 -289.825l36.9365 289.825h103.729l36.9365 -289.825l19.9912 289.825h105.07l-48.2832 -700.005h-129.938l-35.6416 279.646l-35.6416 -279.646h-129.938z" />
    <glyph glyph-name="x" unicode="x" horiz-adv-x="279" 
d="M3 700.006h107.736l28.7061 -121.673l28.7061 121.673h107.742l-82.5771 -350.003l82.5771 -350.009h-107.742l-28.7061 121.673l-28.7061 -121.673h-107.736l82.5771 350.009z" />
    <glyph glyph-name="y" unicode="y" horiz-adv-x="317" 
d="M186.001 700h105v-700.005h-105.001v180.835h-35c-77.2588 0.147461 -139.853 62.7412 -140 140v379.17h105.001v-379.17c0.133789 -19.2744 15.7256 -34.8662 35 -35h35v414.17z" />
    <glyph glyph-name="y" unicode="&#xff;" horiz-adv-x="317" 
d="M186.001 700h105v-700.005h-105.001v180.835h-35c-77.2588 0.147461 -139.853 62.7412 -140 140v379.17h105.001v-379.17c0.133789 -19.2744 15.7256 -34.8662 35 -35h35v414.17z" />
    <glyph glyph-name="y" unicode="&#xfd;" horiz-adv-x="317" 
d="M186.001 700h105v-700.005h-105.001v180.835h-35c-77.2588 0.147461 -139.853 62.7412 -140 140v379.17h105.001v-379.17c0.133789 -19.2744 15.7256 -34.8662 35 -35h35v414.17z" />
    <glyph glyph-name="y" unicode="&#xff;" horiz-adv-x="317" 
d="M186.001 700h105v-700.005h-105.001v180.835h-35c-77.2588 0.147461 -139.853 62.7412 -140 140v379.17h105.001v-379.17c0.133789 -19.2744 15.7256 -34.8662 35 -35h35v414.17z" />
    <glyph glyph-name="y" unicode="&#xfd;" horiz-adv-x="317" 
d="M186.001 700h105v-700.005h-105.001v180.835h-35c-77.2588 0.147461 -139.853 62.7412 -140 140v379.17h105.001v-379.17c0.133789 -19.2744 15.7256 -34.8662 35 -35h35v414.17z" />
    <glyph glyph-name="z" unicode="z" horiz-adv-x="291" 
d="M28.334 595.215v104.587h256.669v-186.686l-175.001 -350.015v-58.3105h151.674v-104.593h-256.675v186.686l175.001 350.015v58.3105z" />
    <glyph glyph-name="braceleft" unicode="{" horiz-adv-x="374" 
d="M231.773 410.908l-0.0820312 -30.0596l-52.2207 -30.917l52.2207 -30.917l0.0820312 -29.9775c0.21582 -81.002 11.2119 -146.703 32.9707 -190.278c14.7705 -29.5518 34.5576 -46.3115 59.1045 -46.3115v-105.001c-68.793 0 -119.707 37.835 -153.027 104.558
c-25.7891 51.6484 -40.1562 122.535 -43.0732 206.77l-77.7471 46.084l26.6582 45.1152l-26.6582 45.1152l77.7471 46.084c2.92285 84.2344 17.2783 155.121 43.0732 206.77c33.3203 66.7227 84.2344 104.558 153.027 104.558v-105.001
c-24.5469 0 -44.3457 -16.7598 -59.1045 -46.3115c-21.7588 -43.5752 -32.7549 -109.282 -32.9707 -190.278z" />
    <glyph glyph-name="verticalbar" unicode="|" horiz-adv-x="156" 
d="M130.001 -84.585h-105.001v784.595h105.001v-784.595z" />
    <glyph glyph-name="braceright" unicode="}" horiz-adv-x="374" 
d="M323.848 395.123l-26.6582 -45.0332l26.6582 -45.1152l-77.7471 -46.084c-2.92285 -84.2344 -17.2783 -155.121 -43.0732 -206.77c-33.3203 -66.7227 -84.2344 -104.558 -153.027 -104.558v105.001c24.5469 0 44.3457 16.7598 59.1045 46.3115
c21.7588 43.5752 32.7549 109.282 32.9707 190.278l0.0820312 29.9775l52.2207 30.917l-52.2207 30.917l-0.0820312 29.9775c-0.21582 81.002 -11.2119 146.703 -32.9707 190.278c-14.7705 29.5518 -34.5576 46.3115 -59.1045 46.3115v105.001
c68.793 0 119.707 -37.835 153.027 -104.558c25.7891 -51.6484 40.1562 -122.535 43.0732 -206.77z" />
    <glyph glyph-name="asciitilde" unicode="~" horiz-adv-x="357" 
d="M245.335 424.744l99.2549 -32.8125c-98.2803 -294.871 -155.669 -180.105 -213.052 -65.334c-0.945312 1.9248 -1.89648 3.82031 -20.2832 -51.334l-99.2549 32.8125c98.2803 294.877 155.669 180.105 213.052 65.334c0.945312 -1.9248 1.90234 -3.82031 20.2832 51.334z
" />
    <glyph glyph-name="nonbreakingspace" unicode="&#xa0;" horiz-adv-x="190" 
 />
    <glyph glyph-name="softhyphen" unicode="&#xad;" horiz-adv-x="0" 
 />
    </font>
</defs>
</svg>
